<svg xmlns="http://www.w3.org/2000/svg" xmlns:xlink="http://www.w3.org/1999/xlink" width="1080" zoomAndPan="magnify" viewBox="0 0 810 1012.49997" height="1350" preserveAspectRatio="xMidYMid meet" version="1.0"><defs><clipPath id="89fab84385"><path d="M 0.199219 0 L 809.800781 0 L 809.800781 1012 L 0.199219 1012 Z M 0.199219 0 " clip-rule="nonzero"/></clipPath><clipPath id="f66c65b9cd"><path d="M 0.183594 2 L 161.917969 2 L 161.917969 263.722656 L 0.183594 263.722656 Z M 0.183594 2 " clip-rule="nonzero"/></clipPath><clipPath id="de00fa6d77"><path d="M 53.152344 282.148438 L 108.847656 282.148438 L 108.847656 337.84375 L 53.152344 337.84375 Z M 53.152344 282.148438 " clip-rule="nonzero"/></clipPath><clipPath id="bd89b58679"><path d="M 81 282.148438 C 65.621094 282.148438 53.152344 294.617188 53.152344 309.996094 C 53.152344 325.375 65.621094 337.84375 81 337.84375 C 96.378906 337.84375 108.847656 325.375 108.847656 309.996094 C 108.847656 294.617188 96.378906 282.148438 81 282.148438 Z M 81 282.148438 " clip-rule="nonzero"/></clipPath><clipPath id="2fa172a62e"><path d="M 0.152344 0.148438 L 55.847656 0.148438 L 55.847656 55.84375 L 0.152344 55.84375 Z M 0.152344 0.148438 " clip-rule="nonzero"/></clipPath><clipPath id="802d52d36d"><path d="M 28 0.148438 C 12.621094 0.148438 0.152344 12.617188 0.152344 27.996094 C 0.152344 43.375 12.621094 55.84375 28 55.84375 C 43.378906 55.84375 55.847656 43.375 55.847656 27.996094 C 55.847656 12.617188 43.378906 0.148438 28 0.148438 Z M 28 0.148438 " clip-rule="nonzero"/></clipPath><clipPath id="ce6591e779"><rect x="0" width="56" y="0" height="56"/></clipPath><clipPath id="404232a067"><rect x="0" width="162" y="0" height="339"/></clipPath></defs><g clip-path="url(#89fab84385)"><path fill="#ffffff" d="M 0.199219 0 L 809.800781 0 L 809.800781 1012 L 0.199219 1012 Z M 0.199219 0 " fill-opacity="1" fill-rule="nonzero"/><path fill="#ffffff" d="M 0.199219 0 L 809.800781 0 L 809.800781 1012 L 0.199219 1012 Z M 0.199219 0 " fill-opacity="1" fill-rule="nonzero"/></g><g transform="matrix(1, 0, 0, 1, 324, 337)"><g clip-path="url(#404232a067)"><g clip-path="url(#f66c65b9cd)"><path fill="#c92a2a" d="M 81.328125 263.703125 C 75.355469 234.339844 64.824219 209.902344 52.074219 187.257812 C 42.613281 170.457031 31.65625 154.953125 21.515625 138.664062 C 18.132812 133.222656 15.210938 127.480469 11.957031 121.835938 C 5.453125 110.550781 0.183594 97.464844 0.515625 80.496094 C 0.84375 63.914062 5.632812 50.609375 12.539062 39.734375 C 23.894531 21.84375 42.914062 7.179688 68.4375 3.324219 C 89.308594 0.175781 108.871094 5.5 122.746094 13.625 C 134.082031 20.265625 142.863281 29.136719 149.539062 39.589844 C 156.503906 50.5 161.300781 63.390625 161.703125 80.207031 C 161.910156 88.820312 160.5 96.796875 158.515625 103.414062 C 156.511719 110.113281 153.28125 115.710938 150.40625 121.691406 C 144.800781 133.363281 137.769531 144.0625 130.710938 154.761719 C 109.695312 186.640625 89.964844 219.152344 81.328125 263.703125 Z M 81.328125 263.703125 " fill-opacity="1" fill-rule="evenodd"/></g><path fill="#ffffff" d="M 109.355469 80.3125 C 109.355469 81.238281 109.308594 82.164062 109.21875 83.085938 C 109.128906 84.007812 108.992188 84.921875 108.8125 85.832031 C 108.628906 86.738281 108.40625 87.636719 108.136719 88.523438 C 107.871094 89.410156 107.558594 90.28125 107.203125 91.136719 C 106.851562 91.992188 106.457031 92.828125 106.019531 93.644531 C 105.582031 94.464844 105.109375 95.257812 104.59375 96.027344 C 104.082031 96.796875 103.53125 97.539062 102.945312 98.257812 C 102.355469 98.972656 101.734375 99.660156 101.082031 100.3125 C 100.429688 100.96875 99.742188 101.589844 99.027344 102.179688 C 98.3125 102.765625 97.570312 103.316406 96.800781 103.832031 C 96.035156 104.347656 95.242188 104.824219 94.425781 105.257812 C 93.609375 105.695312 92.773438 106.089844 91.921875 106.445312 C 91.066406 106.800781 90.195312 107.113281 89.308594 107.382812 C 88.425781 107.648438 87.527344 107.875 86.621094 108.054688 C 85.714844 108.238281 84.800781 108.371094 83.878906 108.464844 C 82.960938 108.554688 82.039062 108.597656 81.113281 108.597656 C 80.1875 108.597656 79.265625 108.554688 78.34375 108.464844 C 77.421875 108.371094 76.511719 108.238281 75.601562 108.054688 C 74.695312 107.875 73.800781 107.648438 72.914062 107.382812 C 72.027344 107.113281 71.160156 106.800781 70.304688 106.445312 C 69.449219 106.089844 68.613281 105.695312 67.800781 105.257812 C 66.984375 104.824219 66.191406 104.347656 65.421875 103.832031 C 64.652344 103.316406 63.910156 102.765625 63.195312 102.179688 C 62.480469 101.589844 61.796875 100.96875 61.144531 100.3125 C 60.488281 99.660156 59.867188 98.972656 59.28125 98.257812 C 58.695312 97.539062 58.144531 96.796875 57.628906 96.027344 C 57.117188 95.257812 56.640625 94.464844 56.207031 93.644531 C 55.769531 92.828125 55.375 91.992188 55.019531 91.136719 C 54.667969 90.28125 54.355469 89.410156 54.085938 88.523438 C 53.820312 87.636719 53.59375 86.738281 53.414062 85.832031 C 53.234375 84.921875 53.097656 84.007812 53.007812 83.085938 C 52.917969 82.164062 52.871094 81.238281 52.871094 80.3125 C 52.871094 79.386719 52.917969 78.460938 53.007812 77.539062 C 53.097656 76.617188 53.234375 75.703125 53.414062 74.792969 C 53.59375 73.882812 53.820312 72.988281 54.085938 72.101562 C 54.355469 71.214844 54.667969 70.34375 55.019531 69.488281 C 55.375 68.632812 55.769531 67.792969 56.207031 66.976562 C 56.640625 66.160156 57.117188 65.367188 57.628906 64.597656 C 58.144531 63.824219 58.695312 63.082031 59.28125 62.367188 C 59.867188 61.652344 60.488281 60.964844 61.144531 60.308594 C 61.796875 59.65625 62.480469 59.035156 63.195312 58.445312 C 63.910156 57.859375 64.652344 57.304688 65.421875 56.792969 C 66.191406 56.277344 66.984375 55.800781 67.800781 55.363281 C 68.613281 54.929688 69.449219 54.53125 70.304688 54.179688 C 71.160156 53.824219 72.027344 53.511719 72.914062 53.242188 C 73.800781 52.972656 74.695312 52.75 75.601562 52.566406 C 76.511719 52.386719 77.421875 52.25 78.34375 52.160156 C 79.265625 52.070312 80.1875 52.023438 81.113281 52.023438 C 82.039062 52.023438 82.960938 52.070312 83.878906 52.160156 C 84.800781 52.25 85.714844 52.386719 86.621094 52.566406 C 87.527344 52.75 88.425781 52.972656 89.308594 53.242188 C 90.195312 53.511719 91.066406 53.824219 91.921875 54.179688 C 92.773438 54.53125 93.609375 54.929688 94.425781 55.363281 C 95.242188 55.800781 96.035156 56.277344 96.800781 56.792969 C 97.570312 57.304688 98.3125 57.859375 99.027344 58.445312 C 99.742188 59.035156 100.429688 59.65625 101.082031 60.308594 C 101.734375 60.964844 102.355469 61.652344 102.945312 62.367188 C 103.53125 63.082031 104.082031 63.824219 104.59375 64.597656 C 105.109375 65.367188 105.582031 66.160156 106.019531 66.976562 C 106.457031 67.792969 106.851562 68.632812 107.203125 69.488281 C 107.558594 70.34375 107.871094 71.214844 108.136719 72.101562 C 108.40625 72.988281 108.628906 73.882812 108.8125 74.792969 C 108.992188 75.703125 109.128906 76.617188 109.21875 77.539062 C 109.308594 78.460938 109.355469 79.386719 109.355469 80.3125 Z M 109.355469 80.3125 " fill-opacity="1" fill-rule="nonzero"/><g clip-path="url(#de00fa6d77)"><g clip-path="url(#bd89b58679)"><g transform="matrix(1, 0, 0, 1, 53, 282)"><g clip-path="url(#ce6591e779)"><g clip-path="url(#2fa172a62e)"><g clip-path="url(#802d52d36d)"><path fill="#c92a2a" d="M 0.152344 0.148438 L 55.847656 0.148438 L 55.847656 55.84375 L 0.152344 55.84375 Z M 0.152344 0.148438 " fill-opacity="1" fill-rule="nonzero"/></g></g></g></g></g></g></g></g></svg>